<?xml version="1.0" encoding="utf-8"?><svg width="23" height="24" viewBox="0 0 23 24" fill="none" xmlns="http://www.w3.org/2000/svg">
<path d="M4.89984 24L5.17894 23.6883L5.42704 23.5325L5.70614 23.6883C6.10929 23.3766 6.45042 23.0338 6.72952 22.6909C7.00863 22.3481 7.53583 21.4442 8.37314 20.0416L10.2959 16.7688C11.3192 15.0234 16.6843 7.6987 17.8937 6.32727C20.6848 3.11688 21.6151 2.15065 21.9872 1.65195C22.3284 1.21558 22.5455 0.872727 22.5455 0.623376C22.5455 0.467532 22.4524 0.218181 22.2974 0.218181C22.1423 0.218181 21.8942 0.342857 21.5841 0.56104L21.8322 0L20.7778 0.623376L20.8398 0.187013C20.7778 0.374025 20.2816 0.872728 20.1576 0.872728C20.0645 0.872728 20.0335 0.77922 20.0335 0.623376V0.498701L19.1652 0.935064C19.1032 0.935064 19.0411 0.903896 19.0411 0.810389C19.0411 0.716883 19.1032 0.498701 19.1652 0.187013C18.731 0.654545 18.1108 1.18442 17.3045 1.74545C16.2191 2.49351 12.0015 7.82338 10.2959 10.5974C9.14843 12.4364 8.68326 13.5273 8.49719 13.5273C8.43516 13.5273 8.40415 13.4026 8.37314 13.1532C7.81493 14.4312 7.31874 15.4909 6.82256 16.2701C6.32637 17.0493 5.8612 17.4545 5.52007 17.4545C5.11692 17.4545 4.77579 16.6753 4.40365 15.0857C4.24859 14.4 3.90747 13.9636 3.41128 13.7143L3.31824 13.6831C3.22521 13.6831 3.10116 13.7455 2.94611 13.839C2.79105 13.9325 2.69801 14.026 2.63599 14.026H2.60498L2.04677 13.839L1.55058 14.587C1.48856 14.6805 1.36451 14.7117 1.27148 14.7117C1.11642 14.7117 0.992372 14.6805 0.930349 14.587C0.806302 15.0234 0.651244 15.2416 0.527198 15.2416C0.434163 15.2416 0.248093 15.1792 0 15.0234C0.217081 16.6753 0.403151 17.7662 0.589221 18.2961C0.96136 19.3247 1.79867 21.6623 2.60498 23.2208C2.69801 23.4078 2.82206 23.626 2.91509 23.813C3.22521 23.626 3.31824 23.5948 3.53533 23.5948L3.78342 23.626C3.93848 23.6883 4.03151 23.7818 4.03151 23.9377L4.74478 23.5948C4.86883 23.5948 4.89984 23.7195 4.89984 24Z" fill="#2E6434"/>
</svg>
